<svg width="140" height="129" viewBox="0 0 140 129" fill="none" xmlns="http://www.w3.org/2000/svg">
<path fill-rule="evenodd" clip-rule="evenodd" d="M85.7009 47.7411L88.4242 77.9239H76.1008V59.8173C76.1008 56.4518 73.3471 53.7107 70 53.7107C66.6529 53.7107 63.8992 56.467 63.8992 59.8173V77.9239H51.5453L54.2991 47.7411H85.7009ZM101.63 120.35V113.391H91.6801L88.8502 82.4467H51.1345L48.3199 113.391H38.3547V120.35H28.8003V129H111.2V120.35H101.63ZM76.1008 113.391H63.8839V99.9898C63.8839 96.6244 66.6377 93.8833 69.9848 93.8833C73.3319 93.8833 76.0856 96.6396 76.0856 99.9898V113.391H76.1008ZM105.297 29.5279L117.696 33.4721L140 40.5533V12.2284L117.696 19.3096L105.297 23.2538V29.5279ZM34.7033 29.5279L22.2734 33.4721L0 40.5533V12.2284L22.2886 19.3096L34.7185 23.2538V29.5279H34.7033ZM70 0L80.8172 7.67513L91.6344 15.3655H84.5447V34.5533H91.6344V43.2183H48.3504V34.5533H55.4401V15.3655H48.3504L59.1676 7.67513L70 0ZM72.2517 15.3655H67.7331V34.5533H72.2517V15.3655Z" fill="white"/>
</svg>
